<svg width="614" height="398" viewBox="0 0 614 398" fill="none" xmlns="http://www.w3.org/2000/svg">
<path d="M307.466 209.755C502.023 164.386 589.123 162.731 599.812 180.048C609.39 195.564 541.033 230.474 526.712 237.57C526.528 237.662 526.643 237.938 526.834 237.869C542.634 232.091 621.673 201.71 613.359 175.152C592.502 121.599 307.474 187.795 307.474 187.795C112.916 233.164 25.8169 234.819 15.1277 217.502C5.54965 201.985 73.9064 167.075 88.2276 159.98C88.4115 159.888 88.2966 159.612 88.105 159.681C72.305 165.458 -6.73327 195.84 1.58049 222.398C22.4377 275.951 307.466 209.755 307.466 209.755Z" fill="white"/>
<path d="M491.504 93.0052V168.557C474.226 170.143 456.387 172.434 438.917 175.086V93.0052C438.917 78.4849 450.687 66.7153 465.207 66.7153H465.215C479.735 66.7153 491.504 78.4849 491.504 93.0052Z" fill="white"/>
<path d="M176.003 146.645V227.407C156.594 230.403 139.093 232.763 123.423 234.717V146.645C123.423 132.125 135.192 120.355 149.713 120.355C164.233 120.355 176.003 132.125 176.003 146.645Z" fill="white"/>
<path d="M386.333 26.5639V184.311C365.751 188.273 347.515 192.211 333.745 195.33V26.5639C333.745 12.0435 345.515 0.273926 360.035 0.273926H360.043C374.563 0.273926 386.333 12.0435 386.333 26.5639Z" fill="white"/>
<path d="M281.171 80.2015V207.651C262.575 211.705 245.058 215.229 228.584 218.31V80.2015C228.584 65.6812 240.354 53.9116 254.874 53.9116H254.882C269.402 53.9116 281.171 65.6812 281.171 80.2015Z" fill="white"/>
<path d="M491.504 212.33V250.903C491.504 265.423 479.735 277.193 465.215 277.193H465.207C450.687 277.193 438.917 265.423 438.917 250.903V219.648C458.334 216.652 475.835 214.292 491.504 212.33Z" fill="white"/>
<path d="M176.003 271.962V304.543C176.003 319.064 164.233 330.833 149.713 330.833C135.192 330.833 123.423 319.064 123.423 304.543V278.491C140.702 276.905 158.54 274.614 176.003 271.962Z" fill="white"/>
<path d="M386.333 228.742V317.343C386.333 331.863 374.563 343.633 360.043 343.633H360.035C345.515 343.633 333.745 331.863 333.745 317.343V239.4C352.342 235.339 369.858 231.814 386.333 228.742Z" fill="white"/>
<path d="M281.171 251.719V370.985C281.171 385.505 269.402 397.275 254.882 397.275H254.874C240.354 397.275 228.584 385.505 228.584 370.985V262.737C249.165 258.776 267.402 254.837 281.171 251.719Z" fill="white"/>
</svg>
